<svg id="SvgjsSvg1046" width="5000" height="3867" xmlns="http://www.w3.org/2000/svg" version="1.1" xmlns:xlink="http://www.w3.org/1999/xlink" xmlns:svgjs="http://svgjs.com/svgjs" viewBox="0 0 219.84375 170.03125"><defs id="SvgjsDefs1047"></defs><g id="SvgjsG1049" transform="rotate(0 109.921875 34.640625)"><svg width="80" viewBox="0 0 79.9840087890625 69.2699966430664" xmlns="http://www.w3.org/2000/svg" version="1.1" xmlns:xlink="http://www.w3.org/1999/xlink" xmlns:svgjs="http://svgjs.com/svgjs" preserveAspectRatio="none" height="69.28125" x="69.921875" y="0" fill="#878787" stroke="none"><g><svg xmlns="http://www.w3.org/2000/svg" xmlns:xlink="http://www.w3.org/1999/xlink" version="1.1" x="0px" y="0px" viewBox="10.007999420166016 15.364999771118164 79.9840087890625 69.2699966430664" enable-background="new 0 0 100 100" xml:space="preserve" width="79.9840087890625" height="69.2699966430664"><path d="M50,15.365l-39.992,69.27h79.984L50,15.365z M72.672,74.635H50.18l11.246-19.479L72.672,74.635z M55.652,45.156L50,54.947  l-5.652-9.791L50,35.365L55.652,45.156z M38.574,55.156L49.82,74.635H27.328L38.574,55.156z"></path></svg></g><defs id="SvgjsDefs1048"></defs></svg></g><g id="SvgjsG1051" transform="rotate(0 109.921875 118.75)"><svg xmlns="http://www.w3.org/2000/svg" xmlns:xlink="http://www.w3.org/1999/xlink" width="219.84375" viewBox="1.9300000667572021 13.430000305175781 219.85000610351562 32.939998626708984" overflow="visible" style="overflow: visible;" transform="" version="1.1" xmlns:svgjs="http://svgjs.com/svgjs" preserveAspectRatio="none" height="32.9375" x="0" y="102.28125" fill="#000000" stroke="none"><path stroke="none" fill="rgb(87, 87, 87)" d="M10.58 46.37L10.58 46.37Q6.67 46.37 4.30 44.00L4.30 44.00L4.30 44.00Q1.93 41.63 1.93 37.72L1.93 37.72L1.93 22.03L1.93 22.03Q1.93 18.08 4.30 15.75L4.30 15.75L4.30 15.75Q6.67 13.43 10.58 13.43L10.58 13.43L10.58 13.43Q14.54 13.43 16.93 15.75L16.93 15.75L16.93 15.75Q19.32 18.08 19.32 22.03L19.32 22.03L19.32 22.59L19.32 22.59Q19.32 22.82 19.16 23L19.16 23L19.16 23Q19.00 23.18 18.77 23.18L18.77 23.18L14.49 23.37L14.49 23.37Q13.94 23.37 13.94 22.82L13.94 22.82L13.94 21.67L13.94 21.67Q13.94 20.06 13.02 19.04L13.02 19.04L13.02 19.04Q12.10 18.03 10.58 18.03L10.58 18.03L10.58 18.03Q9.11 18.03 8.19 19.04L8.19 19.04L8.19 19.04Q7.27 20.06 7.27 21.67L7.27 21.67L7.27 38.13L7.27 38.13Q7.27 39.74 8.19 40.76L8.19 40.76L8.19 40.76Q9.11 41.77 10.58 41.77L10.58 41.77L10.58 41.77Q12.10 41.77 13.02 40.76L13.02 40.76L13.02 40.76Q13.94 39.74 13.94 38.13L13.94 38.13L13.94 36.98L13.94 36.98Q13.94 36.75 14.10 36.59L14.10 36.59L14.10 36.59Q14.26 36.43 14.49 36.43L14.49 36.43L18.77 36.62L18.77 36.62Q19.00 36.62 19.16 36.78L19.16 36.78L19.16 36.78Q19.32 36.94 19.32 37.17L19.32 37.17L19.32 37.72L19.32 37.72Q19.32 41.63 16.93 44.00L16.93 44.00L16.93 44.00Q14.54 46.37 10.58 46.37L10.58 46.37ZM25.51 46L25.51 46Q25.28 46 25.11 45.84L25.11 45.84L25.11 45.84Q24.95 45.68 24.95 45.45L24.95 45.45L24.95 14.35L24.95 14.35Q24.95 14.12 25.11 13.96L25.11 13.96L25.11 13.96Q25.28 13.80 25.51 13.80L25.51 13.80L29.74 13.80L29.74 13.80Q29.97 13.80 30.13 13.96L30.13 13.96L30.13 13.96Q30.29 14.12 30.29 14.35L30.29 14.35L30.29 45.45L30.29 45.45Q30.29 45.68 30.13 45.84L30.13 45.84L30.13 45.84Q29.97 46 29.74 46L29.74 46L25.51 46ZM44.20 22.13L44.20 22.13Q47.84 22.13 50.09 24.24L50.09 24.24L50.09 24.24Q52.35 26.36 52.35 29.81L52.35 29.81L52.35 45.45L52.35 45.45Q52.35 45.68 52.19 45.84L52.19 45.84L52.19 45.84Q52.02 46 51.79 46L51.79 46L47.56 46L47.56 46Q47.33 46 47.17 45.84L47.17 45.84L47.17 45.84Q47.01 45.68 47.01 45.45L47.01 45.45L47.01 44.62L47.01 44.62Q47.01 44.48 46.92 44.44L46.92 44.44L46.92 44.44Q46.83 44.39 46.73 44.53L46.73 44.53L46.73 44.53Q45.08 46.37 42.09 46.37L42.09 46.37L42.09 46.37Q39.47 46.37 37.47 44.87L37.47 44.87L37.47 44.87Q35.46 43.38 35.46 39.42L35.46 39.42L35.46 39.42Q35.46 35.28 37.88 33.53L37.88 33.53L37.88 33.53Q40.29 31.79 44.43 31.79L44.43 31.79L46.78 31.79L46.78 31.79Q47.01 31.79 47.01 31.56L47.01 31.56L47.01 30.36L47.01 30.36Q47.01 28.70 46.18 27.71L46.18 27.71L46.18 27.71Q45.35 26.73 44.11 26.73L44.11 26.73L44.11 26.73Q43.15 26.73 42.50 27.35L42.50 27.35L42.50 27.35Q41.86 27.97 41.72 29.03L41.72 29.03L41.72 29.03Q41.67 29.58 41.12 29.58L41.12 29.58L36.66 29.58L36.66 29.58Q36.11 29.58 36.15 29.03L36.15 29.03L36.15 29.03Q36.38 25.90 38.62 24.01L38.62 24.01L38.62 24.01Q40.85 22.13 44.20 22.13L44.20 22.13ZM43.56 41.95L43.56 41.95Q44.94 41.95 45.98 41.08L45.98 41.08L45.98 41.08Q47.01 40.20 47.01 38.64L47.01 38.64L47.01 36.02L47.01 36.02Q47.01 35.79 46.78 35.79L46.78 35.79L44.43 35.79L44.43 35.79Q42.82 35.79 41.88 36.64L41.88 36.64L41.88 36.64Q40.94 37.49 40.94 39.10L40.94 39.10L40.94 39.10Q40.94 40.53 41.67 41.24L41.67 41.24L41.67 41.24Q42.41 41.95 43.56 41.95L43.56 41.95ZM67.82 22.22L67.82 22.22Q69.07 22.22 69.76 22.68L69.76 22.68L69.76 22.68Q70.12 22.91 70.03 23.37L70.03 23.37L69.30 27.65L69.30 27.65Q69.25 28.20 68.65 27.97L68.65 27.97L68.65 27.97Q68.01 27.78 67.46 27.78L67.46 27.78L67.46 27.78Q66.90 27.78 66.44 27.92L66.44 27.92L66.44 27.92Q65.16 28.11 64.35 29.37L64.35 29.37L64.35 29.37Q63.55 30.64 63.55 32.38L63.55 32.38L63.55 45.45L63.55 45.45Q63.55 45.68 63.38 45.84L63.38 45.84L63.38 45.84Q63.22 46 62.99 46L62.99 46L58.76 46L58.76 46Q58.53 46 58.37 45.84L58.37 45.84L58.37 45.84Q58.21 45.68 58.21 45.45L58.21 45.45L58.21 23.05L58.21 23.05Q58.21 22.82 58.37 22.66L58.37 22.66L58.37 22.66Q58.53 22.49 58.76 22.49L58.76 22.49L62.99 22.49L62.99 22.49Q63.22 22.49 63.38 22.66L63.38 22.66L63.38 22.66Q63.55 22.82 63.55 23.05L63.55 23.05L63.55 25.16L63.55 25.16Q63.55 25.35 63.64 25.37L63.64 25.37L63.64 25.37Q63.73 25.39 63.78 25.21L63.78 25.21L63.78 25.21Q65.02 22.22 67.82 22.22L67.82 22.22ZM75.16 46L75.16 46Q74.93 46 74.77 45.84L74.77 45.84L74.77 45.84Q74.61 45.68 74.61 45.45L74.61 45.45L74.61 14.35L74.61 14.35Q74.61 14.12 74.77 13.96L74.77 13.96L74.77 13.96Q74.93 13.80 75.16 13.80L75.16 13.80L79.39 13.80L79.39 13.80Q79.62 13.80 79.78 13.96L79.78 13.96L79.78 13.96Q79.94 14.12 79.94 14.35L79.94 14.35L79.94 30.73L79.94 30.73Q79.94 30.91 80.04 30.91L80.04 30.91L80.04 30.91Q80.13 30.91 80.22 30.77L80.22 30.77L85.23 22.86L85.23 22.86Q85.42 22.49 85.88 22.49L85.88 22.49L90.29 22.49L90.29 22.49Q90.62 22.49 90.71 22.70L90.71 22.70L90.71 22.70Q90.80 22.91 90.62 23.18L90.62 23.18L85.83 30.41L85.83 30.41Q85.74 30.59 85.79 30.73L85.79 30.73L91.31 45.36L91.31 45.36Q91.35 45.45 91.35 45.59L91.35 45.59L91.35 45.59Q91.35 46 90.85 46L90.85 46L86.48 46L86.48 46Q86.02 46 85.88 45.54L85.88 45.54L82.47 35.14L82.47 35.14Q82.43 35.01 82.34 34.98L82.34 34.98L82.34 34.98Q82.24 34.96 82.20 35.10L82.20 35.10L80.04 38.32L80.04 38.32Q79.94 38.50 79.94 38.59L79.94 38.59L79.94 45.45L79.94 45.45Q79.94 45.68 79.78 45.84L79.78 45.84L79.78 45.84Q79.62 46 79.39 46L79.39 46L75.16 46ZM108.69 46L108.69 46Q108.46 46 108.30 45.84L108.30 45.84L108.30 45.84Q108.14 45.68 108.14 45.45L108.14 45.45L108.14 14.35L108.14 14.35Q108.14 14.12 108.30 13.96L108.30 13.96L108.30 13.96Q108.46 13.80 108.69 13.80L108.69 13.80L113.11 13.80L113.11 13.80Q113.61 13.80 113.75 14.21L113.75 14.21L120.88 32.94L120.88 32.94Q120.97 33.07 121.07 33.07L121.07 33.07L121.07 33.07Q121.16 33.07 121.16 32.89L121.16 32.89L121.16 14.35L121.16 14.35Q121.16 14.12 121.32 13.96L121.32 13.96L121.32 13.96Q121.48 13.80 121.71 13.80L121.71 13.80L125.90 13.80L125.90 13.80Q126.13 13.80 126.29 13.96L126.29 13.96L126.29 13.96Q126.45 14.12 126.45 14.35L126.45 14.35L126.45 45.45L126.45 45.45Q126.45 45.68 126.29 45.84L126.29 45.84L126.29 45.84Q126.13 46 125.90 46L125.90 46L121.43 46L121.43 46Q120.93 46 120.79 45.59L120.79 45.59L113.61 26.82L113.61 26.82Q113.57 26.68 113.45 26.70L113.45 26.70L113.45 26.70Q113.34 26.73 113.34 26.86L113.34 26.86L113.38 45.45L113.38 45.45Q113.38 45.68 113.22 45.84L113.22 45.84L113.22 45.84Q113.06 46 112.83 46L112.83 46L108.69 46ZM149.01 35.70L149.01 35.70Q149.01 35.93 148.85 36.09L148.85 36.09L148.85 36.09Q148.69 36.25 148.46 36.25L148.46 36.25L138.25 36.25L138.25 36.25Q138.02 36.25 138.02 36.48L138.02 36.48L138.02 38.50L138.02 38.50Q138.02 39.97 138.80 40.89L138.80 40.89L138.80 40.89Q139.58 41.81 140.82 41.81L140.82 41.81L140.82 41.81Q141.88 41.81 142.62 41.12L142.62 41.12L142.62 41.12Q143.35 40.43 143.63 39.38L143.63 39.38L143.63 39.38Q143.77 38.87 144.23 38.92L144.23 38.92L148.37 39.19L148.37 39.19Q148.92 39.28 148.87 39.79L148.87 39.79L148.87 39.79Q148.50 42.92 146.46 44.64L146.46 44.64L146.46 44.64Q144.41 46.37 140.82 46.37L140.82 46.37L140.82 46.37Q137.05 46.37 134.86 44.37L134.86 44.37L134.86 44.37Q132.68 42.37 132.68 38.92L132.68 38.92L132.68 29.58L132.68 29.58Q132.68 26.22 134.86 24.17L134.86 24.17L134.86 24.17Q137.05 22.13 140.82 22.13L140.82 22.13L140.82 22.13Q144.59 22.13 146.80 24.17L146.80 24.17L146.80 24.17Q149.01 26.22 149.01 29.58L149.01 29.58L149.01 35.70ZM140.82 26.73L140.82 26.73Q139.58 26.73 138.80 27.65L138.80 27.65L138.80 27.65Q138.02 28.57 138.02 29.99L138.02 29.99L138.02 32.02L138.02 32.02Q138.02 32.25 138.25 32.25L138.25 32.25L143.44 32.25L143.44 32.25Q143.67 32.25 143.67 32.02L143.67 32.02L143.67 29.99L143.67 29.99Q143.67 28.52 142.89 27.62L142.89 27.62L142.89 27.62Q142.11 26.73 140.82 26.73L140.82 26.73ZM158.92 46L158.92 46Q158.42 46 158.32 45.49L158.32 45.49L153.45 23.09L153.40 22.91L153.40 22.91Q153.40 22.49 153.91 22.49L153.91 22.49L157.96 22.49L157.96 22.49Q158.51 22.49 158.55 23L158.55 23L160.99 38.00L160.99 38.00Q161.04 38.13 161.13 38.13L161.13 38.13L161.13 38.13Q161.22 38.13 161.27 38.00L161.27 38.00L163.75 23L163.75 23Q163.80 22.49 164.35 22.49L164.35 22.49L167.94 22.49L167.94 22.49Q168.49 22.49 168.54 23L168.54 23L171.11 38.00L171.11 38.00Q171.16 38.13 171.25 38.13L171.25 38.13L171.25 38.13Q171.34 38.13 171.39 38.00L171.39 38.00L173.83 23L173.83 23Q173.87 22.49 174.42 22.49L174.42 22.49L178.43 22.54L178.43 22.54Q179.02 22.54 178.89 23.14L178.89 23.14L173.96 45.49L173.96 45.49Q173.87 46 173.37 46L173.37 46L169.23 46L169.23 46Q168.67 46 168.63 45.49L168.63 45.49L166.19 32.06L166.19 32.06Q166.14 31.92 166.05 31.92L166.05 31.92L166.05 31.92Q165.96 31.92 165.91 32.06L165.91 32.06L163.52 45.49L163.52 45.49Q163.48 46 162.92 46L162.92 46L158.92 46ZM199.84 35.70L199.84 35.70Q199.84 35.93 199.68 36.09L199.68 36.09L199.68 36.09Q199.52 36.25 199.29 36.25L199.29 36.25L189.07 36.25L189.07 36.25Q188.84 36.25 188.84 36.48L188.84 36.48L188.84 38.50L188.84 38.50Q188.84 39.97 189.63 40.89L189.63 40.89L189.63 40.89Q190.41 41.81 191.65 41.81L191.65 41.81L191.65 41.81Q192.71 41.81 193.44 41.12L193.44 41.12L193.44 41.12Q194.18 40.43 194.46 39.38L194.46 39.38L194.46 39.38Q194.59 38.87 195.05 38.92L195.05 38.92L199.19 39.19L199.19 39.19Q199.75 39.28 199.70 39.79L199.70 39.79L199.70 39.79Q199.33 42.92 197.28 44.64L197.28 44.64L197.28 44.64Q195.24 46.37 191.65 46.37L191.65 46.37L191.65 46.37Q187.88 46.37 185.69 44.37L185.69 44.37L185.69 44.37Q183.51 42.37 183.51 38.92L183.51 38.92L183.51 29.58L183.51 29.58Q183.51 26.22 185.69 24.17L185.69 24.17L185.69 24.17Q187.88 22.13 191.65 22.13L191.65 22.13L191.65 22.13Q195.42 22.13 197.63 24.17L197.63 24.17L197.63 24.17Q199.84 26.22 199.84 29.58L199.84 29.58L199.84 35.70ZM191.65 26.73L191.65 26.73Q190.41 26.73 189.63 27.65L189.63 27.65L189.63 27.65Q188.84 28.57 188.84 29.99L188.84 29.99L188.84 32.02L188.84 32.02Q188.84 32.25 189.07 32.25L189.07 32.25L194.27 32.25L194.27 32.25Q194.50 32.25 194.50 32.02L194.50 32.02L194.50 29.99L194.50 29.99Q194.50 28.52 193.72 27.62L193.72 27.62L193.72 27.62Q192.94 26.73 191.65 26.73L191.65 26.73ZM205.84 46L205.84 46Q205.61 46 205.45 45.84L205.45 45.84L205.45 45.84Q205.29 45.68 205.29 45.45L205.29 45.45L205.29 14.35L205.29 14.35Q205.29 14.12 205.45 13.96L205.45 13.96L205.45 13.96Q205.61 13.80 205.84 13.80L205.84 13.80L210.07 13.80L210.07 13.80Q210.30 13.80 210.46 13.96L210.46 13.96L210.46 13.96Q210.62 14.12 210.62 14.35L210.62 14.35L210.62 45.45L210.62 45.45Q210.62 45.68 210.46 45.84L210.46 45.84L210.46 45.84Q210.30 46 210.07 46L210.07 46L205.84 46ZM216.99 46L216.99 46Q216.76 46 216.60 45.84L216.60 45.84L216.60 45.84Q216.44 45.68 216.44 45.45L216.44 45.45L216.44 14.35L216.44 14.35Q216.44 14.12 216.60 13.96L216.60 13.96L216.60 13.96Q216.76 13.80 216.99 13.80L216.99 13.80L221.23 13.80L221.23 13.80Q221.46 13.80 221.62 13.96L221.62 13.96L221.62 13.96Q221.78 14.12 221.78 14.35L221.78 14.35L221.78 45.45L221.78 45.45Q221.78 45.68 221.62 45.84L221.62 45.84L221.62 45.84Q221.46 46 221.23 46L221.23 46L216.99 46Z" transform="rotate(0 111.85500311851501 29.899999618530273)"></path><defs id="SvgjsDefs1050"></defs></svg></g><g id="SvgjsG1053" transform="rotate(0 109.9140625 157.625)"><svg xmlns="http://www.w3.org/2000/svg" xmlns:xlink="http://www.w3.org/1999/xlink" width="166.140625" viewBox="0.6500000357627869 6.300000190734863 166.15000915527344 18.81999969482422" overflow="visible" style="overflow: visible;" transform="" version="1.1" xmlns:svgjs="http://svgjs.com/svgjs" preserveAspectRatio="none" height="18.8125" x="26.84375" y="148.21875" fill="#000000" stroke="none"><path stroke="none" fill="rgb(107, 107, 107)" d="M3.63 21L3.63 21Q3.44 21 3.40 20.81L3.40 20.81L0.65 6.53L0.65 6.49L0.65 6.49Q0.65 6.30 0.84 6.30L0.84 6.30L1.58 6.30L1.58 6.30Q1.79 6.30 1.81 6.49L1.81 6.49L3.97 18.40L3.97 18.40Q3.99 18.44 4.01 18.44L4.01 18.44L4.01 18.44Q4.03 18.44 4.05 18.40L4.05 18.40L5.88 6.49L5.88 6.49Q5.90 6.30 6.09 6.30L6.09 6.30L6.74 6.30L6.74 6.30Q6.93 6.30 6.95 6.49L6.95 6.49L8.88 18.40L8.88 18.40Q8.90 18.44 8.93 18.44L8.93 18.44L8.93 18.44Q8.95 18.44 8.97 18.40L8.97 18.40L10.94 6.49L10.94 6.49Q10.98 6.30 11.15 6.30L11.15 6.30L11.89 6.30L11.89 6.30Q11.99 6.30 12.04 6.36L12.04 6.36L12.04 6.36Q12.10 6.43 12.08 6.53L12.08 6.53L9.47 20.81L9.47 20.81Q9.45 21 9.24 21L9.24 21L8.57 21L8.57 21Q8.40 21 8.36 20.81L8.36 20.81L6.47 8.92L6.47 8.92Q6.45 8.88 6.43 8.88L6.43 8.88L6.43 8.88Q6.41 8.88 6.38 8.92L6.38 8.92L4.52 20.81L4.52 20.81Q4.49 21 4.31 21L4.31 21L3.63 21ZM23.12 15.90L23.12 15.90Q23.12 16.11 22.91 16.11L22.91 16.11L18.08 16.11L18.08 16.11Q17.99 16.11 17.99 16.19L17.99 16.19L17.99 17.98L17.99 17.98Q17.99 18.94 18.55 19.56L18.55 19.56L18.55 19.56Q19.11 20.18 19.99 20.18L19.99 20.18L19.99 20.18Q20.72 20.18 21.25 19.74L21.25 19.74L21.25 19.74Q21.77 19.30 21.94 18.59L21.94 18.59L21.94 18.59Q22.01 18.40 22.17 18.40L22.17 18.40L22.85 18.44L22.85 18.44Q22.93 18.44 22.99 18.48L22.99 18.48L22.99 18.48Q23.05 18.52 23.03 18.61L23.03 18.61L23.03 18.69L23.03 18.69Q22.82 19.84 22.03 20.51L22.03 20.51L22.03 20.51Q21.23 21.17 19.99 21.17L19.99 21.17L19.99 21.17Q18.60 21.17 17.74 20.30L17.74 20.30L17.74 20.30Q16.88 19.43 16.88 18.04L16.88 18.04L16.88 13.40L16.88 13.40Q16.88 12.01 17.74 11.13L17.74 11.13L17.74 11.13Q18.60 10.25 19.99 10.25L19.99 10.25L19.99 10.25Q21.40 10.25 22.26 11.13L22.26 11.13L22.26 11.13Q23.12 12.01 23.12 13.40L23.12 13.40L23.12 15.90ZM19.99 11.23L19.99 11.23Q19.11 11.23 18.55 11.85L18.55 11.85L18.55 11.85Q17.99 12.47 17.99 13.46L17.99 13.46L17.99 15.06L17.99 15.06Q17.99 15.14 18.08 15.14L18.08 15.14L21.92 15.14L21.92 15.14Q22.01 15.14 22.01 15.06L22.01 15.06L22.01 13.46L22.01 13.46Q22.01 12.47 21.45 11.85L21.45 11.85L21.45 11.85Q20.89 11.23 19.99 11.23L19.99 11.23ZM34.71 13.36L34.73 15.67L34.71 18.04L34.71 18.04Q34.66 19.43 33.90 20.30L33.90 20.30L33.90 20.30Q33.13 21.17 31.87 21.17L31.87 21.17L31.87 21.17Q31.20 21.17 30.64 20.88L30.64 20.88L30.64 20.88Q30.09 20.60 29.75 20.08L29.75 20.08L29.75 20.08Q29.73 20.01 29.69 20.02L29.69 20.02L29.69 20.02Q29.65 20.03 29.65 20.10L29.65 20.10L29.65 20.79L29.65 20.79Q29.65 21 29.44 21L29.44 21L28.74 21L28.74 21Q28.53 21 28.53 20.79L28.53 20.79L28.53 6.51L28.53 6.51Q28.53 6.30 28.74 6.30L28.74 6.30L29.44 6.30L29.44 6.30Q29.65 6.30 29.65 6.51L29.65 6.51L29.65 11.32L29.65 11.32Q29.65 11.38 29.69 11.39L29.69 11.39L29.69 11.39Q29.73 11.40 29.75 11.34L29.75 11.34L29.75 11.34Q30.09 10.81 30.64 10.53L30.64 10.53L30.64 10.53Q31.20 10.25 31.87 10.25L31.87 10.25L31.87 10.25Q33.13 10.25 33.90 11.12L33.90 11.12L33.90 11.12Q34.66 11.99 34.71 13.36L34.71 13.36ZM33.62 13.50L33.62 13.50Q33.62 12.49 33.05 11.87L33.05 11.87L33.05 11.87Q32.48 11.23 31.60 11.23L31.60 11.23L31.60 11.23Q30.74 11.23 30.19 11.87L30.19 11.87L30.19 11.87Q29.65 12.49 29.65 13.50L29.65 13.50L29.65 17.91L29.65 17.91Q29.65 18.92 30.19 19.55L30.19 19.55L30.19 19.55Q30.74 20.18 31.60 20.18L31.60 20.18L31.60 20.18Q32.50 20.18 33.06 19.55L33.06 19.55L33.06 19.55Q33.62 18.92 33.62 17.91L33.62 17.91L33.62 13.50ZM47.95 21L47.95 21Q47.74 21 47.74 20.79L47.74 20.79L47.74 6.51L47.74 6.51Q47.74 6.30 47.95 6.30L47.95 6.30L51.04 6.30L51.04 6.30Q52.59 6.30 53.50 7.34L53.50 7.34L53.50 7.34Q54.40 8.38 54.40 10.16L54.40 10.16L54.40 17.14L54.40 17.14Q54.40 18.92 53.50 19.96L53.50 19.96L53.50 19.96Q52.59 21 51.04 21L51.04 21L47.95 21ZM48.86 19.93L48.86 19.93Q48.86 20.01 48.94 20.01L48.94 20.01L51.04 20.01L51.04 20.01Q52.07 19.99 52.67 19.23L52.67 19.23L52.67 19.23Q53.27 18.46 53.27 17.11L53.27 17.11L53.27 10.21L53.27 10.21Q53.27 8.84 52.67 8.06L52.67 8.06L52.67 8.06Q52.07 7.29 51.02 7.29L51.02 7.29L48.94 7.29L48.94 7.29Q48.86 7.29 48.86 7.37L48.86 7.37L48.86 19.93ZM66.20 15.90L66.20 15.90Q66.20 16.11 65.99 16.11L65.99 16.11L61.16 16.11L61.16 16.11Q61.07 16.11 61.07 16.19L61.07 16.19L61.07 17.98L61.07 17.98Q61.07 18.94 61.63 19.56L61.63 19.56L61.63 19.56Q62.19 20.18 63.07 20.18L63.07 20.18L63.07 20.18Q63.80 20.18 64.33 19.74L64.33 19.74L64.33 19.74Q64.85 19.30 65.02 18.59L65.02 18.59L65.02 18.59Q65.09 18.40 65.25 18.40L65.25 18.40L65.93 18.44L65.93 18.44Q66.01 18.44 66.07 18.48L66.07 18.48L66.07 18.48Q66.14 18.52 66.11 18.61L66.11 18.61L66.11 18.69L66.11 18.69Q65.90 19.84 65.11 20.51L65.11 20.51L65.11 20.51Q64.31 21.17 63.07 21.17L63.07 21.17L63.07 21.17Q61.68 21.17 60.82 20.30L60.82 20.30L60.82 20.30Q59.96 19.43 59.96 18.04L59.96 18.04L59.96 13.40L59.96 13.40Q59.96 12.01 60.82 11.13L60.82 11.13L60.82 11.13Q61.68 10.25 63.07 10.25L63.07 10.25L63.07 10.25Q64.48 10.25 65.34 11.13L65.34 11.13L65.34 11.13Q66.20 12.01 66.20 13.40L66.20 13.40L66.20 15.90ZM63.07 11.23L63.07 11.23Q62.19 11.23 61.63 11.85L61.63 11.85L61.63 11.85Q61.07 12.47 61.07 13.46L61.07 13.46L61.07 15.06L61.07 15.06Q61.07 15.14 61.16 15.14L61.16 15.14L65.00 15.14L65.00 15.14Q65.09 15.14 65.09 15.06L65.09 15.06L65.09 13.46L65.09 13.46Q65.09 12.47 64.53 11.85L64.53 11.85L64.53 11.85Q63.97 11.23 63.07 11.23L63.07 11.23ZM73.63 21L73.63 21Q73.44 21 73.40 20.81L73.40 20.81L70.77 10.65L70.75 10.58L70.75 10.58Q70.75 10.42 70.96 10.42L70.96 10.42L71.76 10.42L71.76 10.42Q71.95 10.42 71.99 10.60L71.99 10.60L74.01 19.21L74.01 19.21Q74.03 19.28 74.05 19.28L74.05 19.28L74.05 19.28Q74.07 19.28 74.09 19.21L74.09 19.21L76.09 10.60L76.09 10.60Q76.13 10.42 76.32 10.42L76.32 10.42L77.12 10.44L77.12 10.44Q77.22 10.44 77.27 10.50L77.27 10.50L77.27 10.50Q77.33 10.56 77.28 10.67L77.28 10.67L74.70 20.81L74.70 20.81Q74.68 21 74.47 21L74.47 21L73.63 21ZM88.24 15.90L88.24 15.90Q88.24 16.11 88.03 16.11L88.03 16.11L83.20 16.11L83.20 16.11Q83.12 16.11 83.12 16.19L83.12 16.19L83.12 17.98L83.12 17.98Q83.12 18.94 83.67 19.56L83.67 19.56L83.67 19.56Q84.23 20.18 85.11 20.18L85.11 20.18L85.11 20.18Q85.85 20.18 86.37 19.74L86.37 19.74L86.37 19.74Q86.90 19.30 87.07 18.59L87.07 18.59L87.07 18.59Q87.13 18.40 87.30 18.40L87.30 18.40L87.97 18.44L87.97 18.44Q88.05 18.44 88.12 18.48L88.12 18.48L88.12 18.48Q88.18 18.52 88.16 18.61L88.16 18.61L88.16 18.69L88.16 18.69Q87.95 19.84 87.15 20.51L87.15 20.51L87.15 20.51Q86.35 21.17 85.11 21.17L85.11 21.17L85.11 21.17Q83.73 21.17 82.87 20.30L82.87 20.30L82.87 20.30Q82.01 19.43 82.01 18.04L82.01 18.04L82.01 13.40L82.01 13.40Q82.01 12.01 82.87 11.13L82.87 11.13L82.87 11.13Q83.73 10.25 85.11 10.25L85.11 10.25L85.11 10.25Q86.52 10.25 87.38 11.13L87.38 11.13L87.38 11.13Q88.24 12.01 88.24 13.40L88.24 13.40L88.24 15.90ZM85.11 11.23L85.11 11.23Q84.23 11.23 83.67 11.85L83.67 11.85L83.67 11.85Q83.12 12.47 83.12 13.46L83.12 13.46L83.12 15.06L83.12 15.06Q83.12 15.14 83.20 15.14L83.20 15.14L87.05 15.14L87.05 15.14Q87.13 15.14 87.13 15.06L87.13 15.06L87.13 13.46L87.13 13.46Q87.13 12.47 86.57 11.85L86.57 11.85L86.57 11.85Q86.02 11.23 85.11 11.23L85.11 11.23ZM93.74 21L93.74 21Q93.53 21 93.53 20.79L93.53 20.79L93.53 6.51L93.53 6.51Q93.53 6.30 93.74 6.30L93.74 6.30L94.43 6.30L94.43 6.30Q94.64 6.30 94.64 6.51L94.64 6.51L94.64 20.79L94.64 20.79Q94.64 21 94.43 21L94.43 21L93.74 21ZM103.17 21.17L103.17 21.17Q101.78 21.17 100.92 20.30L100.92 20.30L100.92 20.30Q100.06 19.43 100.06 18.04L100.06 18.04L100.06 13.40L100.06 13.40Q100.06 12.01 100.92 11.13L100.92 11.13L100.92 11.13Q101.78 10.25 103.17 10.25L103.17 10.25L103.17 10.25Q104.60 10.25 105.46 11.12L105.46 11.12L105.46 11.12Q106.32 11.99 106.32 13.40L106.32 13.40L106.32 18.04L106.32 18.04Q106.32 19.43 105.46 20.30L105.46 20.30L105.46 20.30Q104.60 21.17 103.17 21.17L103.17 21.17ZM103.17 20.18L103.17 20.18Q104.07 20.18 104.64 19.56L104.64 19.56L104.64 19.56Q105.20 18.94 105.20 17.98L105.20 17.98L105.20 13.46L105.20 13.46Q105.20 12.47 104.64 11.85L104.64 11.85L104.64 11.85Q104.07 11.23 103.17 11.23L103.17 11.23L103.17 11.23Q102.29 11.23 101.73 11.85L101.73 11.85L101.73 11.85Q101.17 12.47 101.17 13.46L101.17 13.46L101.17 17.98L101.17 17.98Q101.17 18.94 101.73 19.56L101.73 19.56L101.73 19.56Q102.29 20.18 103.17 20.18L103.17 20.18ZM118.16 13.38L118.18 15.75L118.16 18.06L118.16 18.06Q118.12 19.43 117.35 20.30L117.35 20.30L117.35 20.30Q116.58 21.17 115.32 21.17L115.32 21.17L115.32 21.17Q114.65 21.17 114.09 20.88L114.09 20.88L114.09 20.88Q113.54 20.60 113.20 20.08L113.20 20.08L113.20 20.08Q113.18 20.01 113.14 20.02L113.14 20.02L113.14 20.02Q113.10 20.03 113.10 20.10L113.10 20.10L113.10 24.91L113.10 24.91Q113.10 25.12 112.89 25.12L112.89 25.12L112.19 25.12L112.19 25.12Q111.98 25.12 111.98 24.91L111.98 24.91L111.98 10.63L111.98 10.63Q111.98 10.42 112.19 10.42L112.19 10.42L112.89 10.42L112.89 10.42Q113.10 10.42 113.10 10.63L113.10 10.63L113.10 11.32L113.10 11.32Q113.10 11.38 113.14 11.39L113.14 11.39L113.14 11.39Q113.18 11.40 113.20 11.34L113.20 11.34L113.20 11.34Q113.54 10.81 114.09 10.53L114.09 10.53L114.09 10.53Q114.65 10.25 115.32 10.25L115.32 10.25L115.32 10.25Q116.58 10.25 117.35 11.12L117.35 11.12L117.35 11.12Q118.12 11.99 118.16 13.38L118.16 13.38ZM117.07 13.50L117.07 13.50Q117.07 12.49 116.51 11.87L116.51 11.87L116.51 11.87Q115.95 11.23 115.05 11.23L115.05 11.23L115.05 11.23Q114.19 11.23 113.64 11.87L113.64 11.87L113.64 11.87Q113.10 12.49 113.10 13.50L113.10 13.50L113.10 17.91L113.10 17.91Q113.10 18.92 113.64 19.55L113.64 19.55L113.64 19.55Q114.19 20.18 115.05 20.18L115.05 20.18L115.05 20.18Q115.93 20.18 116.50 19.55L116.50 19.55L116.50 19.55Q117.07 18.92 117.07 17.91L117.07 17.91L117.07 13.50ZM131.93 10.27L131.93 10.27Q133.13 10.27 133.82 11.19L133.82 11.19L133.82 11.19Q134.51 12.12 134.51 13.71L134.51 13.71L134.51 20.79L134.51 20.79Q134.51 21 134.30 21L134.30 21L133.61 21L133.61 21Q133.40 21 133.40 20.79L133.40 20.79L133.40 13.82L133.40 13.82Q133.40 12.64 132.91 11.95L132.91 11.95L132.91 11.95Q132.41 11.26 131.59 11.26L131.59 11.26L131.59 11.26Q130.71 11.26 130.20 11.93L130.20 11.93L130.20 11.93Q129.68 12.60 129.68 13.78L129.68 13.78L129.68 20.79L129.68 20.79Q129.68 21 129.47 21L129.47 21L128.78 21L128.78 21Q128.57 21 128.57 20.79L128.57 20.79L128.57 13.82L128.57 13.82Q128.57 12.64 128.07 11.95L128.07 11.95L128.07 11.95Q127.56 11.26 126.77 11.26L126.77 11.26L126.77 11.26Q125.88 11.26 125.36 11.93L125.36 11.93L125.36 11.93Q124.83 12.60 124.83 13.78L124.83 13.78L124.83 20.79L124.83 20.79Q124.83 21 124.62 21L124.62 21L123.95 21L123.95 21Q123.74 21 123.74 20.79L123.74 20.79L123.74 10.63L123.74 10.63Q123.74 10.42 123.95 10.42L123.95 10.42L124.62 10.42L124.62 10.42Q124.83 10.42 124.83 10.63L124.83 10.63L124.83 11.40L124.83 11.40Q124.83 11.47 124.88 11.48L124.88 11.48L124.88 11.48Q124.92 11.49 124.94 11.42L124.94 11.42L124.94 11.42Q125.32 10.86 125.89 10.56L125.89 10.56L125.89 10.56Q126.47 10.27 127.10 10.27L127.10 10.27L127.10 10.27Q127.90 10.27 128.49 10.69L128.49 10.69L128.49 10.69Q129.08 11.11 129.39 11.89L129.39 11.89L129.39 11.89Q129.43 11.99 129.50 11.84L129.50 11.84L129.50 11.84Q129.85 11.07 130.50 10.67L130.50 10.67L130.50 10.67Q131.15 10.27 131.93 10.27L131.93 10.27ZM146.19 15.90L146.19 15.90Q146.19 16.11 145.98 16.11L145.98 16.11L141.15 16.11L141.15 16.11Q141.06 16.11 141.06 16.19L141.06 16.19L141.06 17.98L141.06 17.98Q141.06 18.94 141.62 19.56L141.62 19.56L141.62 19.56Q142.18 20.18 143.06 20.18L143.06 20.18L143.06 20.18Q143.79 20.18 144.32 19.74L144.32 19.74L144.32 19.74Q144.84 19.30 145.01 18.59L145.01 18.59L145.01 18.59Q145.07 18.40 145.24 18.40L145.24 18.40L145.91 18.44L145.91 18.44Q146.00 18.44 146.06 18.48L146.06 18.48L146.06 18.48Q146.12 18.52 146.10 18.61L146.10 18.61L146.10 18.69L146.10 18.69Q145.89 19.84 145.10 20.51L145.10 20.51L145.10 20.51Q144.30 21.17 143.06 21.17L143.06 21.17L143.06 21.17Q141.67 21.17 140.81 20.30L140.81 20.30L140.81 20.30Q139.95 19.43 139.95 18.04L139.95 18.04L139.95 13.40L139.95 13.40Q139.95 12.01 140.81 11.13L140.81 11.13L140.81 11.13Q141.67 10.25 143.06 10.25L143.06 10.25L143.06 10.25Q144.47 10.25 145.33 11.13L145.33 11.13L145.33 11.13Q146.19 12.01 146.19 13.40L146.19 13.40L146.19 15.90ZM143.06 11.23L143.06 11.23Q142.18 11.23 141.62 11.85L141.62 11.85L141.62 11.85Q141.06 12.47 141.06 13.46L141.06 13.46L141.06 15.06L141.06 15.06Q141.06 15.14 141.15 15.14L141.15 15.14L144.99 15.14L144.99 15.14Q145.07 15.14 145.07 15.06L145.07 15.06L145.07 13.46L145.07 13.46Q145.07 12.47 144.52 11.85L144.52 11.85L144.52 11.85Q143.96 11.23 143.06 11.23L143.06 11.23ZM155.05 10.27L155.05 10.27Q156.33 10.27 157.02 11.13L157.02 11.13L157.02 11.13Q157.71 11.99 157.71 13.54L157.71 13.54L157.71 20.79L157.71 20.79Q157.71 21 157.50 21L157.50 21L156.81 21L156.81 21Q156.60 21 156.60 20.79L156.60 20.79L156.60 13.65L156.60 13.65Q156.60 12.52 156.11 11.89L156.11 11.89L156.11 11.89Q155.61 11.26 154.71 11.26L154.71 11.26L154.71 11.26Q153.79 11.26 153.25 11.93L153.25 11.93L153.25 11.93Q152.72 12.60 152.72 13.78L152.72 13.78L152.72 20.79L152.72 20.79Q152.72 21 152.51 21L152.51 21L151.81 21L151.81 21Q151.60 21 151.60 20.79L151.60 20.79L151.60 10.63L151.60 10.63Q151.60 10.42 151.81 10.42L151.81 10.42L152.51 10.42L152.51 10.42Q152.72 10.42 152.72 10.63L152.72 10.63L152.72 11.45L152.72 11.45Q152.72 11.51 152.76 11.51L152.76 11.51L152.76 11.51Q152.80 11.51 152.82 11.45L152.82 11.45L152.82 11.45Q153.58 10.27 155.05 10.27L155.05 10.27ZM166.80 11.09L166.80 11.09Q166.80 11.30 166.59 11.30L166.59 11.30L164.91 11.30L164.91 11.30Q164.83 11.30 164.83 11.38L164.83 11.38L164.83 18.14L164.83 18.14Q164.83 19.19 165.19 19.60L165.19 19.60L165.19 19.60Q165.54 20.01 166.32 20.01L166.32 20.01L166.53 20.01L166.53 20.01Q166.74 20.01 166.74 20.22L166.74 20.22L166.74 20.79L166.74 20.79Q166.74 21 166.53 21L166.53 21L166.11 21L166.11 21Q164.93 21 164.34 20.45L164.34 20.45L164.34 20.45Q163.74 19.91 163.74 18.42L163.74 18.42L163.74 11.38L163.74 11.38Q163.74 11.30 163.65 11.30L163.65 11.30L162.79 11.30L162.79 11.30Q162.58 11.30 162.58 11.09L162.58 11.09L162.58 10.63L162.58 10.63Q162.58 10.42 162.79 10.42L162.79 10.42L163.65 10.42L163.65 10.42Q163.74 10.42 163.74 10.33L163.74 10.33L163.74 7.98L163.74 7.98Q163.74 7.77 163.95 7.77L163.95 7.77L164.62 7.77L164.62 7.77Q164.83 7.77 164.83 7.98L164.83 7.98L164.83 10.33L164.83 10.33Q164.83 10.42 164.91 10.42L164.91 10.42L166.59 10.42L166.59 10.42Q166.80 10.42 166.80 10.63L166.80 10.63L166.80 11.09Z" transform="rotate(0 83.7250046133995 15.710000038146973)"></path><defs id="SvgjsDefs1052"></defs></svg></g></svg>